<?xml version="1.0" encoding="utf-8"?>
<?xml-stylesheet type="text/xsl" href="rss1.xsl"?>
<rss version="2.0" xmlns:atom="http://www.w3.org/2005/Atom" xmlns:content="http://purl.org/rss/1.0/modules/content/" xmlns:dc="http://purl.org/dc/elements/1.1/" xmlns:media="http://search.yahoo.com/mrss/">
<channel>
 <title>Getty</title>
 <link>http://www.gettyimg.com/</link>
 <atom:link href="http://www.gettyimg.com/" rel="self" type="application/rss+xml" />

 
                <item>
                <title><![CDATA[【Singles (lossless)】Taylor Swift - Suburban Legends (AI)]]></title>
                <link><![CDATA[https://sharemania.us/threads/taylor-swift-suburban-legends-ai.238735/]]></link>
                <description><![CDATA[<article>
<blockquote class="messageText SelectQuoteContainer ugc baseHtml">
<img src="https://celebmafia.com/wp-content/uploads/2023/10/taylor-swift-1989-taylor-s-version-photo-shoot-2023-hq-2.jpg" class="bbCodeImage LbImage" alt="[​IMG]" data-url="https://celebmafia.com/wp-content/uploads/2023/10/taylor-swift-1989-taylor-s-version-photo-shoot-2023-hq-2.jpg" style=""> <br>
<br>
hey everyone, <br>
<br>
weird request i know, but an AI version of Suburban Legends by Taylor Swift just surfaced online (<span data-s9e-mediaembed="youtube" style="display:inline-block;width:100%;max-width:640px"><span style="display:block;overflow:hidden;position:relative;padding-bottom:56.25%"><iframe allowfullscreen="" loading="lazy" scrolling="no" style="background:url(https://i.ytimg.com/vi/S3YzcwrddVY/hqdefault.jpg) 50% 50% / cover;border:0;height:100%;left:0;position:absolute;width:100%" src="https://www.youtube.com/embed/S3YzcwrddVY"></iframe></span></span>) and i was wondering if anybody had it in lossless or just the original file?<br>
also, does anyone happen to have a good acapella for the original Suburban Legends?<br>
<br>
i'm trying to produce and mix a mash-up of both and would love to have the highest quality possible!
<div class="messageTextEndMarker">&nbsp;</div>
</blockquote>
</article>]]></description>
                <author><![CDATA[Dazed_ALX]]></author>
                </item>

                
                <item>
                <title><![CDATA[【Requests】[REQ AUD] - Avatar: The Last Airbender (Soundtrack from the Netflix Series) - Takeshi Furukawa - 16/24 BIT FLAC]]></title>
                <link><![CDATA[https://sharemania.us/threads/avatar-the-last-airbender-soundtrack-from-the-netflix-series-takeshi-furukawa-16-24-bit-flac.238736/]]></link>
                <description><![CDATA[<article>
<blockquote class="messageText SelectQuoteContainer ugc baseHtml">
Hi guys<br>
Has anyone been able to get the newest Avatar: The Last Airbender soundtrack from the live action Netflix series in <b>16 BIT or 24 BIT</b> FLAC? <br>
<br>
Thank you so much in advance.
<div class="messageTextEndMarker">&nbsp;</div>
</blockquote>
</article>]]></description>
                <author><![CDATA[Oscarilbo]]></author>
                </item>

                
                <item>
                <title><![CDATA[【Cinema Center】SERIES - GigaBlaster (Season 1 - Season 4) 1080p GLBO (GLOBOPLAY) WEB-DL AAC2.0 (Brazilian Portuguese) x264-DASH]]></title>
                <link><![CDATA[https://sharemania.us/threads/gigablaster-season-1-season-4-1080p-glbo-globoplay-web-dl-aac2-0-brazilian-portuguese-x264-dash.238737/]]></link>
                <description><![CDATA[<article>
<blockquote class="messageText SelectQuoteContainer ugc baseHtml">
<span style="font-size: 22px"><b>GigaBlaster.S01-S04.1080p.GLBO.WEB-DL.AAC2.0.x264-DASH.mkv (Brazilian Portuguese) MEGA (GB) | Season 1 - Season 4 | 104 Episodes | DASH</b></span><br>
<span style="font-size: 18px"><br>
Title:<b> <b>GigaBlaster</b></b><br>
<br>
Language: <b><b>Portuguese (Brazil)</b></b><br>
<br>
Source:<b><b> GLOBOPLAY (BRAZIL)</b></b><br>
</span><br>
<span style="font-size: 15px">
<div class="ToggleTriggerAnchor bbCodeSpoilerContainer">
<button type="button" class="button bbCodeSpoilerButton ToggleTrigger Tooltip JsOnly" data-target="> .SpoilerTarget"><span>Spoiler: <span class="SpoilerTitle">MediaInfo</span></span></button>
<div class="SpoilerTarget bbCodeSpoilerText">General<br>
Unique ID : 222114828691956919336254471664433411428 (0xA719C28D32FBBB352D661585C394B564)<br>
Complete name : GigaBlaster.S01-S04.1080p.GLBO.WEB-DL.AAC2.0.x264-DASH\GigaBlaster.S01.1080p.GLBO.WEB-DL.AAC2.0.x264-DASH\GigaBlaster.S01E01.Isso.É.Super.Isso.É.Mega.Isso.É.Gigablaster!.1080p.GLBO.WEB-DL.AAC2.0.x264-DASH.mkv<br>
Format : Matroska<br>
Format version : Version 4<br>
File size : 397 MiB<br>
Duration : 11 min 17 s<br>
Overall bit rate : 4 914 kb/s<br>
Frame rate : 29.970 FPS<br>
Encoded date : 2024-02-21 23:11:13 UTC<br>
Writing application : mkvmerge v82.0 ('I'm The President') 64-bit<br>
Writing library : libebml v1.4.5 + libmatroska v1.7.1<br>
<br>
Video<br>
ID : 1<br>
Format : AVC<br>
Format/Info : Advanced Video Codec<br>
Format profile : High@L4<br>
Format settings : CABAC / 2 Ref Frames<br>
Format settings, CABAC : Yes<br>
Format settings, Reference frames : 2 frames<br>
Codec ID : V_MPEG4/ISO/AVC<br>
Duration : 11 min 17 s<br>
Bit rate : 4 788 kb/s<br>
Width : 1 920 pixels<br>
Height : 1 080 pixels<br>
Display aspect ratio : 16:9<br>
Frame rate mode : Constant<br>
Frame rate : 29.970 (30000/1001) FPS<br>
Color space : YUV<br>
Chroma subsampling : 4:2:0<br>
Bit depth : 8 bits<br>
Scan type : Progressive<br>
Bits/(Pixel*Frame) : 0.077<br>
Stream size : 386 MiB (97%)<br>
Writing library : x264 core 155<br>
Encoding settings : cabac=1 / ref=2 / deblock=1:0:0 / analyse=0x3:0x113 / me=hex / subme=4 / psy=1 / psy_rd=1.00:0.00 / mixed_ref=0 / me_range=16 / chroma_me=1 / trellis=1 / 8x8dct=1 / cqm=0 / deadzone=21,11 / fast_pskip=1 / chroma_qp_offset=0 / threads=34 / lookahead_threads=8 / sliced_threads=0 / nr=0 / decimate=1 / interlaced=0 / bluray_compat=0 / constrained_intra=0 / bframes=1 / b_pyramid=0 / b_adapt=1 / b_bias=0 / direct=1 / weightb=1 / open_gop=0 / weightp=1 / keyint=30 / keyint_min=16 / scenecut=0 / intra_refresh=0 / rc=2pass / mbtree=0 / bitrate=4788 / ratetol=1.0 / qcomp=0.60 / qpmin=0 / qpmax=69 / qpstep=4 / cplxblur=20.0 / qblur=0.5 / ip_ratio=1.40 / pb_ratio=1.30 / aq=1:1.00<br>
Default : Yes<br>
Forced : No<br>
<br>
Audio<br>
ID : 2<br>
Format : AAC LC<br>
Format/Info : Advanced Audio Codec Low Complexity<br>
Codec ID : A_AAC-2<br>
Duration : 11 min 17 s<br>
Bit rate : 128 kb/s<br>
Channel(s) : 2 channels<br>
Channel layout : L R<br>
Sampling rate : 44.1 kHz<br>
Frame rate : 43.066 FPS (1024 SPF)<br>
Compression mode : Lossy<br>
Delay relative to video : -46 ms<br>
Stream size : 10.3 MiB (3%)<br>
Default : Yes<br>
Forced : No</div>
</div></span><br>
<img src="https://i.imgur.com/eXf339Z.jpeg" class="bbCodeImage LbImage" alt="[​IMG]" data-url="https://i.imgur.com/eXf339Z.jpeg" style=""> <br>
<br>
<b><span style="font-size: 22px">Zueira sem fim e muita diversão! Giga vive novas aventuras em Caçapa do Canto e tem mais pistas do paradeiro do Japonês Sem Cabeça! Será que agora ele bate o recorde do karaokê?<br>
<br>
Screenshots:</span><br>
<span style="font-size: 18px">Season 1:<br>
<img src="https://i.imgur.com/tzfAhw2.png" class="bbCodeImage LbImage" alt="[​IMG]" data-url="https://i.imgur.com/tzfAhw2.png" style=""> <br>
<b>Season 2:</b><br>
<b><img src="https://i.imgur.com/4mTEIo3.png" class="bbCodeImage LbImage" alt="[​IMG]" data-url="https://i.imgur.com/4mTEIo3.png" style=""> </b><br>
<b><b>Season 3:</b></b><br>
<b><b><img src="https://i.imgur.com/9YPi2wl.png" class="bbCodeImage LbImage" alt="[​IMG]" data-url="https://i.imgur.com/9YPi2wl.png" style=""> </b></b><br>
<b><b><b>Season 4:</b></b></b><br>
<b><b><b><img src="https://i.imgur.com/OKK4rVZ.png" class="bbCodeImage LbImage" alt="[​IMG]" data-url="https://i.imgur.com/OKK4rVZ.png" style=""> </b></b></b></span><br>
<span style="font-size: 22px"><br>
<b><span style="font-size: 26px">Download on MEGA:</span></b></span><br>
<span style="font-size: 18px">Season 1 | 1080p<br>
<div class="bbCodeBlock bbCodeVfcHH HiddenContent">
<div class="attribution type">Hidden Content:</div>
<blockquote>You must reply before you can see the hidden data contained here.</blockquote>
</div>Season 2 | 1080p</span></b><br>
<span style="font-size: 18px"><b>
<div class="bbCodeBlock bbCodeVfcHH HiddenContent">
<div class="attribution type">Hidden Content:</div>
<blockquote>You must reply before you can see the hidden data contained here.</blockquote>
</div></b><br>
<b>Season 3 | 1080p</b><br>
<b>
<div class="bbCodeBlock bbCodeVfcHH HiddenContent">
<div class="attribution type">Hidden Content:</div>
<blockquote>You must reply before you can see the hidden data contained here.</blockquote>
</div></b><br>
<b>Season 4 | 1080p</b><br>
<b>
<div class="bbCodeBlock bbCodeVfcHH HiddenContent">
<div class="attribution type">Hidden Content:</div>
<blockquote>You must reply before you can see the hidden data contained here.</blockquote>
</div></b></span>
<div class="messageTextEndMarker">&nbsp;</div>
</blockquote>
</article>]]></description>
                <author><![CDATA[dash]]></author>
                </item>

                </channel></rss>